<?xml version="1.0" encoding="UTF-8"?>
<!DOCTYPE svg PUBLIC "-//W3C//DTD SVG 1.1//EN" "http://www.w3.org/Graphics/SVG/1.1/DTD/svg11.dtd">
<!-- Creator: CorelDRAW 2017 -->
<svg xmlns="http://www.w3.org/2000/svg" xml:space="preserve" width="105.311mm" height="96.45mm" version="1.1" style="shape-rendering:geometricPrecision; text-rendering:geometricPrecision; image-rendering:optimizeQuality; fill-rule:evenodd; clip-rule:evenodd"
viewBox="0 0 10953.9 10032.19"
 xmlns:xlink="http://www.w3.org/1999/xlink">
 <defs>
  <style type="text/css">
   <![CDATA[
    .str0 {stroke:#2B2A29;stroke-width:20.8;stroke-miterlimit:22.9256}
    .fil1 {fill:#FEFEFE}
    .fil0 {fill:#FEFEFE}
   ]]>
  </style>
 </defs>
 <g id="Слой_x0020_1">
  <metadata id="CorelCorpID_0Corel-Layer"/>
  <path class="fil0 str0" d="M1466.6 556.48c-546.08,455.06 -819.11,1092.15 -819.11,1729.24 0,1092.15 728.1,2093.29 2184.3,2093.29 182.03,0 273.04,0 455.06,0 0,182.03 -91.01,364.05 -91.01,546.08 0,455.06 182.03,637.09 364.05,910.13 -637.09,91.01 -1729.24,182.03 -2548.35,637.09 -728.1,455.06 -1001.14,1183.16 -1001.14,1638.23 0,1001.14 910.13,1911.27 2821.39,1911.27 2366.33,0 3549.49,-1274.18 3549.49,-2457.34 0,-910.13 -546.08,-1365.19 -1092.15,-1820.25l-455.06 -364.05c-182.03,-91.01 -364.05,-273.04 -364.05,-546.08 0,-273.04 182.03,-455.06 364.05,-637.09 546.08,-455.06 1092.15,-910.13 1092.15,-1911.27 0,-1001.14 -637.09,-1547.21 -910.13,-1820.25l819.11 0 819.11 -455.06 -2730.38 0c-728.1,0 -1638.23,91.01 -2457.34,546.08zm364.05 1274.18c0,-273.04 91.01,-637.09 364.05,-1001.14 182.03,-273.04 546.08,-455.06 910.13,-455.06 1092.15,0 1638.23,1547.21 1638.23,2457.34 0,273.04 0,728.1 -364.05,1001.14 -182.03,182.03 -546.08,364.05 -910.13,364.05 -1092.15,0 -1638.23,-1456.2 -1638.23,-2366.33zm1911.27 4459.62c91.01,0 182.03,0 273.04,0 1001.14,728.1 1456.2,1092.15 1456.2,1729.24 0,819.11 -637.09,1456.2 -1911.27,1456.2 -1456.2,0 -2366.33,-728.1 -2366.33,-1638.23 0,-910.13 910.13,-1274.18 1183.16,-1365.19 546.08,-182.03 1274.18,-182.03 1365.19,-182.03z"/>
  <polygon class="fil1 str0" points="8213.12,223.39 8213.12,2043.64 6392.86,2043.64 6392.86,2953.77 8213.12,2953.77 8213.12,4774.02 9123.24,4774.02 9123.24,2953.77 10943.5,2953.77 10943.5,2043.64 9123.24,2043.64 9123.24,223.39 "/>
 </g>
</svg>
