<?xml version="1.0" encoding="UTF-8"?>
<!DOCTYPE svg PUBLIC "-//W3C//DTD SVG 1.1//EN" "http://www.w3.org/Graphics/SVG/1.1/DTD/svg11.dtd">
<!-- Creator: CorelDRAW 2017 -->
<svg xmlns="http://www.w3.org/2000/svg" xml:space="preserve" width="6.55mm" height="6.2855mm" version="1.1" style="shape-rendering:geometricPrecision; text-rendering:geometricPrecision; image-rendering:optimizeQuality; fill-rule:evenodd; clip-rule:evenodd"
viewBox="0 0 655 628.55"
 xmlns:xlink="http://www.w3.org/1999/xlink">
 <defs>
  <style type="text/css">
   <![CDATA[
    .str0 {stroke:#FEFEFE;stroke-width:20;stroke-miterlimit:22.9256}
    .fil1 {fill:#FEFEFE}
    .fil0 {fill:black}
   ]]>
  </style>
 </defs>
 <g id="Слой_x0020_1">
  <metadata id="CorelCorpID_0Corel-Layer"/>
  <path class="fil0" d="M141.76 76.15c0,36.54 -29.37,66.15 -65.62,66.15 -36.25,0 -65.62,-29.61 -65.62,-66.15 0,-36.51 29.37,-66.15 65.62,-66.15 36.25,0 65.62,29.63 65.62,66.15zm0.53 119.07l-132.29 0 0 423.33 132.29 0 0 -423.33zm211.19 0l-131.44 0 0 423.33 131.47 0 0 -222.22c0,-123.56 159.52,-133.67 159.52,0l0 222.22 131.97 0 0 -268.05c0,-208.49 -236.06,-200.9 -291.52,-98.27l0 -57.02 0 0.01z"/>
  <polygon class="fil1 str0" points="142.29,195.22 10,195.22 10,618.55 142.29,618.55 "/>
  <path class="fil1 str0" d="M76.14 142.3c36.25,0 65.62,-29.61 65.62,-66.15 0,-36.52 -29.37,-66.15 -65.62,-66.15 -36.25,0 -65.62,29.64 -65.62,66.15 0,36.54 29.37,66.15 65.62,66.15z"/>
  <path class="fil1 str0" d="M645 350.5c0,-208.49 -236.06,-200.9 -291.52,-98.27l0 -57.01 -131.44 0 0 423.33 131.47 0 0 -222.22c0,-123.56 159.52,-133.67 159.52,0l0 222.22 131.97 0 0 -268.05z"/>
 </g>
</svg>
