<?xml version="1.0" encoding="UTF-8"?>
<!DOCTYPE svg PUBLIC "-//W3C//DTD SVG 1.1//EN" "http://www.w3.org/Graphics/SVG/1.1/DTD/svg11.dtd">
<!-- Creator: CorelDRAW 2017 -->
<svg xmlns="http://www.w3.org/2000/svg" xml:space="preserve" width="6.35mm" height="5.1605mm" version="1.1" style="shape-rendering:geometricPrecision; text-rendering:geometricPrecision; image-rendering:optimizeQuality; fill-rule:evenodd; clip-rule:evenodd"
viewBox="0 0 3030.4 2462.74"
 xmlns:xlink="http://www.w3.org/1999/xlink">
 <defs>
  <style type="text/css">
   <![CDATA[
    .fil0 {fill:#FEFEFE}
   ]]>
  </style>
 </defs>
 <g id="Слой_x0020_1">
  <metadata id="CorelCorpID_0Corel-Layer"/>
  <path class="fil0" d="M3030.4 291.49c-111.48,49.49 -231.31,82.85 -357.06,97.88 128.42,-76.88 227.02,-198.77 273.36,-343.94 -120.07,71.2 -253.17,122.98 -394.86,150.9 -113.25,-120.83 -275.03,-196.33 -453.8,-196.33 -401.4,0 -696.37,374.53 -605.7,763.28 -516.55,-25.87 -974.64,-273.36 -1281.36,-649.51 -162.88,279.42 -84.47,644.97 192.32,830.09 -101.79,-3.29 -197.72,-31.21 -281.47,-77.79 -6.82,288.01 199.62,557.45 498.61,617.44 -87.52,23.72 -183.35,29.3 -280.8,10.59 79.03,246.97 308.58,426.64 580.83,431.7 -261.38,204.92 -590.67,296.45 -920.48,257.61 275.12,176.38 602.02,279.32 953.07,279.32 1154.32,0 1806.5,-974.88 1767.08,-1849.31 121.45,-87.76 226.92,-197.24 310.25,-321.94z"/>
 </g>
</svg>
